<?xml version="1.0" standalone="no"?>
<!DOCTYPE svg PUBLIC "-//W3C//DTD SVG 20010904//EN"
 "http://www.w3.org/TR/2001/REC-SVG-20010904/DTD/svg10.dtd">
<svg version="1.0" xmlns="http://www.w3.org/2000/svg"
 width="600.000000pt" height="600.000000pt" viewBox="0 0 600.000000 600.000000"
 preserveAspectRatio="xMidYMid meet">
<metadata>
Created by potrace 1.11, written by Peter Selinger 2001-2013
</metadata>
<g transform="translate(0.000000,600.000000) scale(0.100000,-0.100000)"
fill="#000000" stroke="none">
<path d="M2924 5506 c-23 -10 -43 -11 -75 -5 -70 13 -136 11 -153 -6 -8 -8
-26 -15 -39 -15 -14 0 -41 -7 -60 -15 -40 -16 -104 -20 -126 -6 -19 12 -62 -1
-75 -24 -20 -35 -45 -54 -88 -69 -24 -8 -37 -15 -30 -16 19 0 -13 -56 -41 -71
-12 -7 -52 -42 -88 -78 -67 -68 -75 -74 -121 -103 -18 -12 -25 -23 -21 -37 3
-14 -4 -29 -24 -48 -55 -52 -133 -154 -163 -212 -60 -119 -130 -309 -140 -380
-13 -91 -14 -280 -2 -350 5 -30 7 -101 4 -157 -4 -96 -4 -102 17 -113 11 -7
21 -9 21 -6 0 3 14 -2 30 -12 35 -20 46 -50 34 -90 -4 -16 -8 -32 -8 -38 -1
-5 -5 -13 -9 -16 -5 -4 -4 -15 1 -25 6 -11 13 -28 17 -39 9 -30 25 1 25 50 0
22 5 57 10 77 8 26 8 44 0 57 -12 24 3 71 24 71 12 0 12 7 -1 48 -18 61 -9
176 19 229 11 22 21 64 23 98 4 61 21 130 38 153 6 8 5 12 -4 12 -9 0 -10 3
-4 8 11 7 17 27 18 52 0 8 6 21 14 28 7 8 11 17 8 22 -3 5 8 17 25 26 16 10
30 22 30 27 0 4 -6 5 -12 1 -7 -4 -9 -3 -5 2 4 4 20 9 35 10 49 3 52 4 52 19
0 24 17 17 24 -10 10 -41 25 -29 15 13 -11 49 -11 55 4 76 11 15 12 11 10 -26
l-2 -43 9 44 c12 58 42 81 55 42 3 -12 12 -18 20 -15 10 4 16 -5 21 -31 4 -26
9 -33 15 -23 5 7 6 20 4 28 -3 8 -1 35 4 60 6 35 10 41 16 26 5 -11 3 -26 -3
-37 -15 -24 -15 -30 1 -23 9 3 18 -9 26 -35 6 -22 17 -43 23 -47 7 -5 8 -3 4
5 -14 23 4 99 29 123 14 13 25 29 25 37 0 9 7 11 21 8 13 -4 31 4 52 22 40 34
74 37 83 8 7 -21 7 -21 14 -3 5 16 10 12 28 -25 11 -24 21 -38 22 -30 0 11 4
9 15 -5 18 -23 20 -69 3 -58 -8 5 -9 2 -5 -10 4 -10 7 -25 7 -34 0 -15 2 -15
10 -2 7 12 10 8 11 -15 0 -17 3 -23 6 -15 3 8 11 18 17 23 8 5 7 10 -3 16 -7
5 -10 14 -7 20 5 8 12 7 22 -4 19 -19 14 -61 -6 -57 -10 3 -9 -2 5 -18 10 -11
24 -19 30 -16 7 2 23 -19 36 -49 13 -29 27 -51 31 -49 5 3 8 1 8 -5 0 -6 7 -8
15 -5 9 4 15 0 15 -7 0 -12 2 -12 9 0 5 7 13 11 19 7 16 -10 89 50 96 80 4 15
13 36 21 47 13 18 13 18 20 -2 9 -28 21 -26 50 7 20 22 24 24 25 9 0 -10 7
-20 15 -23 8 -4 15 -12 15 -20 0 -8 9 -14 21 -14 11 0 17 5 14 10 -3 6 -1 10
4 10 6 0 11 -4 11 -10 0 -5 19 -2 43 6 112 40 140 43 211 24 59 -16 102 -41
129 -75 4 -5 6 -20 4 -33 -3 -16 -1 -20 8 -12 17 14 22 5 17 -35 -3 -24 -9
-35 -21 -36 -12 0 -11 -3 5 -11 16 -7 23 -22 27 -55 5 -49 19 -69 37 -58 8 5
9 20 5 41 -4 23 -2 34 6 34 8 0 10 -14 6 -45 -4 -43 -3 -45 17 -39 11 4 33 13
47 20 15 7 29 10 33 7 3 -4 6 0 6 8 0 18 71 19 77 2 3 -7 1 -13 -4 -13 -5 0
-18 -7 -29 -16 -10 -8 -14 -13 -7 -10 6 4 14 2 18 -4 10 -16 25 -12 25 7 0 12
3 14 10 7 11 -11 3 -44 -10 -44 -4 0 -4 -18 1 -40 6 -24 5 -49 -1 -65 -14 -36
-13 -45 5 -39 10 4 15 0 15 -15 0 -12 -7 -24 -15 -27 -8 -3 -17 -15 -21 -27
-12 -37 -33 -52 -55 -39 -22 14 -79 16 -79 3 0 -6 -16 -7 -37 -4 -32 5 -35 4
-30 -11 6 -14 3 -16 -16 -10 -31 10 -61 12 -67 4 -8 -11 -71 -40 -65 -30 3 5
-9 3 -27 -4 -18 -7 -47 -13 -65 -12 -17 0 -29 -3 -26 -8 6 -9 -15 -26 -32 -26
-5 0 -4 4 3 9 10 6 7 10 -12 13 -14 3 -23 1 -20 -3 3 -5 -1 -9 -9 -9 -8 0 -22
-10 -31 -22 -9 -13 -15 -18 -12 -12 3 7 -3 14 -13 17 -14 3 -23 -3 -31 -24 -7
-16 -16 -26 -21 -23 -5 3 -9 -6 -9 -20 0 -14 -4 -27 -8 -30 -4 -2 -44 -9 -89
-16 -71 -9 -93 -8 -184 11 -57 11 -115 26 -129 32 -14 5 -28 10 -31 9 -4 -1
-49 7 -100 17 -53 11 -81 20 -64 21 17 1 38 3 48 5 9 2 15 -1 11 -6 -9 -15 25
-10 52 7 23 16 26 15 47 -2 21 -19 21 -19 7 1 -8 11 -19 23 -25 27 -14 10 -27
10 -21 -1 3 -4 -10 -1 -28 8 -18 9 -29 19 -24 22 12 8 -16 19 -47 19 -13 0
-36 -5 -50 -12 -19 -9 -31 -8 -49 2 -27 14 -61 7 -50 -11 4 -7 0 -9 -12 -5
-11 3 -32 2 -49 -3 -25 -8 -26 -9 -7 -10 12 -1 22 -7 22 -15 0 -19 -48 -25
-245 -29 l-160 -4 -7 -49 c-14 -108 -11 -122 27 -138 31 -14 35 -19 35 -54 0
-21 3 -41 6 -45 4 -3 8 -24 9 -46 5 -60 39 -128 76 -150 44 -27 162 -53 207
-46 28 4 32 3 17 -4 -14 -7 12 -9 80 -6 72 3 90 1 65 -5 -37 -10 121 -4 183 6
30 5 31 5 13 -10 -12 -10 -15 -16 -7 -16 15 0 85 73 99 104 5 12 15 40 21 63
8 30 16 41 29 39 12 -2 25 15 46 63 39 89 53 108 82 115 42 11 80 -24 88 -81
18 -120 37 -423 26 -423 -3 0 -7 -10 -8 -23 -1 -13 -20 -44 -43 -70 -23 -25
-47 -56 -53 -68 -6 -12 -26 -27 -44 -33 -19 -7 -30 -15 -25 -21 4 -5 -11 7
-35 28 -34 30 -50 37 -85 37 -24 0 -51 -6 -61 -13 -17 -13 -16 -15 20 -38 28
-17 60 -26 112 -30 55 -4 78 -11 95 -27 13 -12 29 -22 35 -22 7 0 12 -7 12
-15 0 -9 7 -18 15 -21 8 -4 15 -10 15 -16 0 -5 -7 -16 -15 -24 -13 -13 -15
-13 -15 -1 0 8 -7 21 -16 28 -14 11 -19 10 -34 -10 -9 -13 -19 -20 -22 -15 -3
5 -4 4 -2 -2 3 -16 -13 -39 -28 -39 -7 0 -18 -11 -25 -25 l-13 -25 0 33 c0 17
-4 32 -10 32 -5 0 -10 -5 -10 -11 0 -5 -4 -8 -9 -5 -5 4 -11 0 -14 -6 -3 -10
-7 -10 -19 0 -13 10 -18 7 -29 -20 -18 -43 -18 -50 -1 -71 20 -22 11 -29 -35
-29 -76 -1 -103 13 -97 48 3 16 1 23 -6 19 -5 -3 -10 -13 -10 -20 0 -9 -6 -12
-15 -9 -8 4 -15 1 -15 -5 0 -6 -4 -11 -10 -11 -5 0 -6 7 -3 17 4 10 2 14 -5 9
-6 -3 -14 3 -17 15 -6 17 -9 19 -16 8 -5 -8 -6 -23 -3 -34 4 -15 3 -16 -4 -6
-8 11 -12 10 -22 -5 -10 -18 -11 -17 -7 4 6 26 -8 30 -17 5 -3 -10 -9 -25 -12
-33 -5 -13 -4 -13 5 0 9 13 11 13 11 -2 0 -9 -4 -19 -9 -23 -6 -3 -10 -13 -10
-23 0 -39 -14 -101 -22 -96 -5 3 -6 10 -3 16 4 6 2 8 -3 5 -6 -4 -8 -17 -6
-31 3 -13 0 -33 -6 -44 -8 -14 -8 -28 -1 -44 9 -21 10 -20 4 7 -3 16 -3 27 1
24 9 -9 55 35 55 52 0 11 2 11 10 -1 5 -8 10 -10 10 -4 0 6 12 16 26 22 14 7
23 16 20 20 -3 5 8 16 24 25 30 18 27 18 145 -12 22 -6 78 -10 125 -10 80 1
83 2 48 13 -20 6 -43 17 -50 25 -7 8 -8 11 -2 8 7 -4 14 0 18 8 7 19 29 19 67
0 18 -10 29 -22 27 -33 -3 -14 7 -17 57 -19 144 -6 283 -35 237 -51 -6 -2 -8
-10 -5 -18 5 -12 -13 -19 -39 -15 -5 0 -8 -3 -8 -8 0 -7 -68 -36 -110 -46 -3
-1 -12 -5 -21 -9 -9 -4 -20 -6 -25 -5 -5 1 -16 1 -24 0 -12 -1 -11 -4 3 -12
10 -6 25 -8 34 -5 11 5 14 2 9 -11 -5 -16 -4 -16 6 -3 13 16 54 28 45 13 -7
-12 46 -13 60 -2 7 7 14 6 19 -2 4 -7 3 -9 -4 -5 -5 3 -12 0 -15 -6 -5 -16 13
-58 25 -58 10 0 10 13 1 26 -5 5 -1 2 8 -8 9 -9 19 -15 23 -13 3 3 2 -1 -4 -7
-14 -17 -12 -28 5 -28 8 0 14 -3 13 -7 0 -5 2 -16 7 -27 7 -16 10 -14 19 15 8
23 17 34 29 33 11 -1 16 4 15 15 -2 10 5 17 20 19 20 3 22 0 18 -30 -3 -18 -2
-27 1 -20 4 10 9 7 17 -10 8 -15 20 -22 34 -21 12 2 22 1 22 -1 0 -12 -33 -66
-41 -66 -6 0 -9 -6 -7 -14 2 -8 -6 -22 -17 -31 -11 -9 -14 -14 -8 -10 8 4 11
1 7 -9 -3 -8 -12 -12 -20 -9 -10 4 -12 0 -7 -13 4 -12 3 -15 -5 -10 -8 5 -12
-1 -12 -15 0 -12 -3 -19 -7 -16 -3 4 -13 -2 -20 -13 -8 -11 -19 -18 -24 -15
-5 4 -9 -1 -9 -10 0 -9 -4 -13 -10 -10 -5 3 -10 1 -10 -6 0 -8 -4 -8 -15 1
-12 10 -15 9 -15 -5 0 -12 -6 -16 -18 -13 -15 4 -17 0 -14 -26 2 -23 1 -27 -7
-16 -5 8 -7 18 -5 22 3 4 0 16 -5 25 -10 17 -11 16 -12 -2 -1 -11 -2 -24 -4
-30 -1 -5 -3 -14 -4 -20 -1 -5 -6 -1 -11 10 -7 17 -9 17 -9 3 -1 -16 -12 -23
-34 -19 -4 1 -7 -11 -7 -26 0 -50 -3 -63 -17 -63 -7 0 -13 6 -13 14 0 8 -7 22
-17 31 -14 14 -14 18 -2 26 8 5 9 9 3 9 -5 0 -15 -5 -22 -12 -9 -9 -12 -9 -13
2 -1 8 -1 19 0 23 1 5 -3 6 -8 2 -6 -3 -8 -12 -5 -20 3 -7 -3 -19 -14 -26 -12
-7 -18 -19 -14 -27 3 -10 1 -13 -5 -9 -6 4 -13 2 -15 -5 -3 -7 -7 -5 -11 6 -4
9 -3 15 2 12 5 -3 11 6 14 20 l5 26 -25 -28 -25 -29 4 43 c2 23 0 42 -4 42 -5
0 -8 -14 -8 -31 0 -28 -2 -30 -17 -18 -15 12 -16 12 -10 -3 4 -12 2 -18 -7
-18 -8 0 -17 -6 -19 -12 -3 -7 -6 5 -8 27 -2 32 -3 34 -6 12 -3 -18 -9 -25
-16 -20 -8 4 -7 1 1 -9 8 -10 9 -19 4 -22 -6 -3 -13 2 -16 11 -6 15 -8 15 -16
3 -8 -12 -10 -11 -11 5 0 11 -3 14 -6 8 -10 -27 -25 -12 -19 20 4 23 3 28 -4
17 -8 -12 -10 -12 -10 -1 0 11 -5 10 -20 -4 -18 -17 -20 -17 -14 -2 3 9 3 24
0 33 -6 16 -8 16 -24 0 -25 -22 -31 -20 -25 7 3 16 2 18 -5 9 -7 -11 -10 -10
-16 3 -3 9 -4 20 -1 25 2 4 -5 7 -18 6 -12 0 -22 5 -23 12 -1 6 -2 17 -3 22 0
6 -12 3 -26 -6 -23 -15 -25 -15 -19 0 3 9 10 13 15 10 5 -3 9 4 9 15 0 12 -5
21 -11 21 -5 0 -7 6 -3 13 6 9 4 9 -7 -1 -22 -20 -34 -14 -14 8 18 19 17 20
-3 20 -11 0 -24 5 -27 10 -3 6 0 10 7 10 10 0 11 2 0 8 -8 5 -10 16 -6 27 6
14 4 17 -7 13 -11 -4 -15 3 -14 36 0 30 -4 40 -14 38 -12 -3 -12 0 -1 12 7 9
9 16 4 16 -5 0 -2 5 6 10 8 5 11 10 5 10 -13 0 -37 -16 -36 -24 0 -3 -4 -16
-9 -28 -5 -14 -9 -17 -9 -8 -1 9 4 21 11 28 9 9 9 12 -1 12 -9 0 -10 4 -5 13
5 7 1 4 -8 -6 -10 -11 -18 -16 -18 -12 0 4 -7 2 -15 -5 -11 -9 -19 -10 -26 -3
-8 8 -7 13 2 18 8 5 10 4 5 -3 -4 -7 -3 -12 3 -12 18 0 29 33 20 63 -10 36
-20 48 -18 21 4 -37 -1 -54 -15 -54 -9 0 -13 -7 -11 -18 2 -10 -5 -29 -15 -42
l-18 -24 4 30 c2 16 1 21 -2 11 -4 -12 -12 -16 -24 -12 -12 4 -20 0 -23 -12
-3 -13 -5 -12 -7 7 -1 14 -2 29 -1 33 1 5 -3 6 -9 2 -6 -3 -9 -9 -7 -13 2 -4
-4 -15 -14 -24 -18 -17 -19 -17 -28 1 -7 12 -6 22 2 31 10 10 8 12 -6 7 -13
-5 -17 -2 -15 10 2 9 -3 18 -9 20 -8 3 -13 -4 -13 -16 0 -11 -5 -23 -12 -27
-11 -7 -9 20 7 71 4 16 3 15 -6 -3 -7 -12 -16 -22 -21 -22 -5 0 -7 3 -5 8 6 9
-19 33 -26 26 -3 -3 -5 1 -4 8 0 7 -1 21 -1 32 -2 16 -4 17 -19 5 -15 -13 -16
-12 -11 9 5 19 4 21 -8 11 -12 -10 -14 -8 -12 11 2 13 -3 25 -12 27 -13 4 -13
3 0 -6 12 -9 11 -11 -7 -11 -24 0 -31 14 -13 25 6 3 10 13 10 22 0 13 -3 13
-15 3 -18 -15 -20 1 -3 18 9 9 9 12 0 12 -6 0 -9 6 -6 13 2 7 -4 22 -13 32
-10 11 -19 36 -21 55 -3 51 -5 60 -12 60 -4 0 -5 15 -3 33 l4 32 -21 -25 c-21
-25 -22 -25 -17 -2 3 12 1 20 -4 16 -5 -3 -9 10 -10 28 0 18 -3 26 -6 18 -3
-8 -12 -22 -20 -31 -10 -12 -12 -37 -8 -100 3 -46 10 -85 15 -87 6 -2 10 -16
10 -32 0 -36 10 -61 21 -54 5 3 6 -2 3 -11 -9 -22 2 -57 27 -83 11 -13 18 -26
15 -29 -3 -3 0 -13 7 -21 10 -13 9 -14 -10 -4 -19 10 -20 9 -16 -8 3 -11 9
-18 13 -15 4 3 11 -2 14 -11 9 -24 7 -31 -4 -14 -15 23 -11 -1 4 -29 7 -13 11
-33 8 -43 -3 -12 0 -18 9 -16 9 2 14 -10 16 -39 2 -38 -2 -48 -40 -90 -54 -62
-148 -178 -220 -272 -53 -69 -63 -77 -144 -114 -143 -64 -333 -147 -408 -179
-38 -16 -84 -40 -101 -53 -39 -30 -184 -99 -314 -149 -64 -24 -117 -54 -162
-89 -36 -28 -102 -80 -145 -113 -43 -34 -127 -112 -188 -175 -60 -63 -136
-133 -167 -157 l-58 -43 0 -315 0 -314 3000 0 3000 0 0 735 c0 692 -1 736 -17
741 -10 4 -79 34 -153 69 -74 34 -169 73 -210 85 -41 12 -127 51 -191 86 -128
70 -186 94 -394 161 -77 25 -185 67 -240 93 -55 27 -117 52 -137 55 -21 4 -38
11 -38 16 0 5 -20 50 -45 101 -25 51 -45 99 -45 107 0 7 -18 57 -41 109 -22
53 -45 121 -50 151 -7 48 -15 62 -52 96 -34 32 -45 50 -49 82 -4 25 -2 43 4
45 6 2 13 27 15 55 5 45 10 55 44 83 37 29 79 94 79 121 0 11 24 67 101 241
17 37 41 119 55 182 36 173 31 304 -14 352 -38 39 -68 60 -80 56 -7 -2 -12 4
-12 13 0 9 4 13 10 10 5 -3 2 11 -6 31 -12 29 -14 56 -8 138 24 314 -25 511
-184 741 -30 44 -55 86 -55 93 0 7 -13 22 -29 33 -16 12 -52 53 -82 92 -81
110 -171 185 -320 266 -64 35 -87 57 -79 78 3 7 0 13 -6 13 -6 0 -11 5 -11 11
0 6 9 8 23 3 22 -6 22 -6 -2 20 -25 27 -103 56 -149 56 -14 0 -48 6 -76 14
-28 8 -77 22 -109 32 -32 9 -72 14 -88 10 -28 -5 -66 8 -80 28 -6 8 -54 9
-204 5 -22 -1 -58 1 -80 5 -26 4 -51 1 -71 -8z m471 -46 c-3 -5 -10 -10 -16
-10 -5 0 -9 5 -9 10 0 6 7 10 16 10 8 0 12 -4 9 -10z m-494 -837 c-12 -20 -14
-14 -5 12 4 9 9 14 11 11 3 -2 0 -13 -6 -23z m839 -314 c0 -5 -10 -8 -22 -8
-18 1 -19 2 -5 6 9 2 14 9 11 15 -4 7 -2 8 4 4 7 -4 12 -11 12 -17z m24 -401
c-3 -4 -9 -8 -15 -8 -5 0 -9 4 -9 8 0 5 7 9 15 9 8 0 12 -4 9 -9z m-1224 -144
c138 -18 211 -37 233 -62 21 -23 22 -89 2 -162 -8 -30 -18 -71 -22 -90 -8 -44
-69 -156 -88 -164 -8 -3 -22 -3 -30 0 -8 4 -15 2 -15 -2 0 -5 -28 -8 -62 -6
-46 2 -59 0 -48 -7 13 -9 13 -11 -2 -11 -9 0 -18 4 -20 9 -1 5 -60 11 -129 13
-70 2 -124 7 -122 12 3 5 -8 7 -25 4 -17 -2 -29 -1 -27 3 3 3 -8 9 -23 12 -54
11 -96 49 -114 105 -19 55 -36 192 -24 192 10 0 58 -31 86 -56 31 -27 90 -37
122 -20 14 8 46 16 72 20 25 4 46 11 46 16 0 17 58 8 63 -10 6 -22 56 -29 200
-29 105 -1 108 0 102 20 -5 14 -3 19 4 15 12 -8 51 14 51 29 0 16 -66 77 -97
90 -20 8 -51 7 -127 -6 -258 -42 -344 -50 -380 -35 -39 16 -96 67 -96 86 0 7
-7 10 -15 6 -8 -3 -15 -1 -15 5 0 6 9 13 20 16 11 3 20 9 20 14 0 4 12 10 28
12 48 8 313 -3 432 -19z m1070 -48 c0 -8 6 -16 13 -19 10 -4 10 -7 0 -18 -11
-11 -13 -11 -13 1 0 10 -4 9 -18 -3 -39 -35 -197 -42 -224 -10 -13 16 -1 27
57 50 45 17 185 17 185 -1z m-675 -56 c3 -5 1 -10 -4 -10 -6 0 -11 5 -11 10 0
6 2 10 4 10 3 0 8 -4 11 -10z m-465 -50 c0 -5 -2 -10 -4 -10 -3 0 -8 5 -11 10
-3 6 -1 10 4 10 6 0 11 -4 11 -10z m359 -44 c-9 -8 -10 -7 -5 7 3 10 7 24 7
30 1 7 3 4 6 -7 3 -10 -1 -23 -8 -30z m631 18 c0 -8 -19 -13 -24 -6 -3 5 1 9
9 9 8 0 15 -2 15 -3z m-5 -78 c20 -4 45 -4 55 -1 14 4 20 2 20 -9 0 -9 -7 -16
-15 -16 -8 0 -15 -4 -15 -10 0 -6 28 -7 75 -3 66 5 75 4 75 -11 0 -10 -5 -14
-10 -11 -6 3 -13 -1 -16 -9 -8 -21 -98 -47 -160 -45 -56 1 -124 26 -124 46 0
7 -9 13 -19 13 -28 0 -37 20 -12 27 12 3 21 9 21 14 0 5 7 9 15 9 11 0 14 7 9
24 -4 17 0 27 12 34 15 8 22 5 35 -18 12 -19 29 -30 54 -34z m-287 -153 c11
-29 18 -53 16 -53 -6 0 -44 89 -44 102 0 18 7 6 28 -49z m32 4 c0 -36 -15 -27
-25 16 -6 22 -4 26 9 21 10 -4 16 -18 16 -37z m154 28 c-5 -11 0 -14 17 -11
13 2 32 -1 42 -6 49 -25 253 -20 280 6 7 7 35 16 61 20 43 7 48 6 43 -9 -6
-14 -5 -14 14 -2 21 15 59 12 71 -6 7 -12 -18 -85 -36 -105 -27 -28 -155 -44
-331 -40 -146 4 -174 7 -201 24 -30 19 -31 21 -18 46 9 18 20 25 29 21 13 -4
14 -1 5 21 -6 17 -6 26 0 26 6 0 10 7 10 15 0 8 4 15 10 15 5 0 7 -7 4 -15z
m592 -11 c-8 -21 4 -44 23 -45 10 0 11 -2 4 -6 -7 -2 -13 -14 -13 -26 0 -17
-2 -19 -9 -7 -6 8 -7 18 -5 22 3 4 3 8 0 8 -2 0 -11 3 -20 6 -12 4 -16 0 -16
-15 0 -12 6 -21 15 -21 9 0 12 -6 8 -17 -4 -11 -8 -12 -11 -5 -2 7 -11 12 -20
11 -11 0 -12 -2 -4 -6 27 -11 10 -39 -20 -34 -5 0 -8 -3 -8 -9 0 -5 -7 -6 -17
-3 -12 5 -14 3 -8 -8 7 -12 6 -11 -9 1 -16 13 -20 12 -37 -9 -13 -15 -26 -22
-39 -18 -11 3 -20 1 -20 -3 0 -5 -49 -6 -110 -4 -113 4 -151 -9 -62 -21 26 -4
74 -14 107 -22 33 -9 66 -16 73 -16 6 0 12 -4 12 -9 0 -4 7 -8 15 -8 8 0 15
-7 15 -16 0 -11 5 -14 16 -10 12 4 14 1 9 -14 -7 -21 10 -28 18 -7 4 9 6 9 6
0 1 -7 -8 -17 -18 -23 -13 -7 -17 -16 -14 -31 5 -17 3 -20 -7 -14 -10 6 -12 4
-8 -7 4 -10 -4 -23 -23 -37 -16 -12 -29 -29 -29 -39 0 -15 -2 -15 -10 -2 -9
13 -11 13 -20 0 -13 -20 -12 -39 1 -20 9 13 10 13 6 0 -2 -8 -12 -14 -21 -13
-11 0 -15 -4 -12 -13 3 -8 1 -14 -4 -14 -6 0 -10 -7 -10 -15 0 -8 -7 -15 -16
-15 -9 0 -14 -6 -12 -12 6 -16 -16 -38 -36 -38 -9 0 -16 -8 -16 -18 0 -10 7
-19 15 -19 8 0 15 7 15 14 0 11 3 11 14 1 8 -7 11 -17 8 -23 -4 -5 -8 -18 -9
-28 -2 -15 1 -17 18 -12 20 7 21 4 15 -20 -6 -22 -4 -26 8 -22 8 3 16 -2 19
-13 3 -11 1 -20 -4 -22 -5 -2 -10 -12 -12 -23 -1 -11 -6 -26 -11 -33 -4 -8 -9
-30 -11 -50 -10 -141 -17 -177 -39 -192 -11 -8 -25 -15 -29 -15 -5 0 -17 -11
-27 -25 -18 -23 -20 -23 -20 -5 -1 20 -1 20 -15 1 -8 -11 -15 -14 -15 -7 0 7
-4 9 -10 6 -5 -3 -10 0 -11 7 0 9 -2 10 -5 1 -3 -6 2 -24 11 -40 12 -20 13
-23 2 -10 -13 15 -19 17 -37 7 -27 -14 -37 -6 -20 15 7 9 10 18 7 22 -3 3 0
18 8 34 21 39 19 63 -7 85 -13 10 -17 12 -11 4 14 -19 6 -35 -24 -44 -19 -6
-22 -4 -16 11 10 30 35 53 56 53 13 0 17 5 13 15 -3 9 0 15 10 15 12 0 15 -6
10 -26 -5 -19 -4 -24 6 -18 19 12 38 14 38 3 0 -5 -7 -9 -15 -9 -8 0 -15 -6
-15 -14 0 -8 -3 -23 -6 -33 -4 -14 -2 -13 8 3 7 12 19 19 26 17 9 -4 12 8 11
41 -1 25 3 51 9 59 6 7 14 38 17 68 10 90 -17 148 -122 269 -54 62 -66 82 -53
90 9 6 8 9 -7 14 -47 15 -148 264 -115 285 12 7 164 -3 215 -15 16 -3 27 -1
27 5 0 6 -10 11 -22 12 -47 1 -110 10 -131 18 -12 5 40 6 120 3 164 -6 312 10
359 39 17 10 35 15 39 11 5 -4 5 -2 2 4 -4 7 0 25 8 40 8 16 18 43 21 60 5 25
10 31 25 27 12 -3 18 -11 15 -19z m404 -593 c0 -6 -4 -13 -10 -16 -5 -3 -10 1
-10 9 0 9 5 16 10 16 6 0 10 -4 10 -9z m-1313 -80 c0 -11 -5 -18 -9 -15 -4 3
-5 11 -1 19 7 21 12 19 10 -4z m-57 -13 c0 -5 3 -7 8 -5 4 3 14 -2 22 -11 13
-14 12 -15 -5 -8 -13 5 -10 -1 10 -20 27 -25 27 -27 10 -37 -25 -14 -103 -13
-117 1 -9 9 -5 17 15 35 15 12 27 30 27 38 0 9 7 16 15 16 8 0 15 -4 15 -9z
m1350 -30 c0 -16 -3 -19 -11 -11 -6 6 -8 16 -5 22 11 17 16 13 16 -11z m-1589
-25 c13 -17 13 -17 -6 -3 -11 8 -22 16 -24 17 -2 2 0 3 6 3 6 0 17 -8 24 -17z
m49 -13 c0 -5 -4 -10 -10 -10 -5 0 -10 5 -10 10 0 6 5 10 10 10 6 0 10 -4 10
-10z m-70 -81 c0 -5 -9 -9 -20 -9 -11 0 -20 4 -20 8 0 4 9 8 20 9 11 1 20 -2
20 -8z m60 -9 c0 -5 -5 -10 -11 -10 -5 0 -7 5 -4 10 3 6 8 10 11 10 2 0 4 -4
4 -10z m180 -26 c0 -8 -5 -12 -10 -9 -6 4 -8 11 -5 16 9 14 15 11 15 -7z m423
-164 c3 -11 1 -18 -4 -14 -5 3 -9 -4 -9 -14 0 -11 -7 -25 -15 -32 -18 -15 -20
-44 -2 -34 6 4 9 3 4 -1 -4 -5 -16 -10 -26 -12 -25 -4 -17 33 11 48 12 6 18
19 16 32 -2 19 7 47 16 47 2 0 6 -9 9 -20z m148 -123 c-10 -9 -11 -8 -5 6 3
10 9 15 12 12 3 -3 0 -11 -7 -18z m-1463 -37 c-7 -10 -14 -18 -15 -16 -6 6 9
36 18 36 5 0 4 -9 -3 -20z m417 -210 c-3 -5 -11 -10 -16 -10 -6 0 -7 5 -4 10
3 6 11 10 16 10 6 0 7 -4 4 -10z m-306 -509 c11 -21 27 -41 36 -45 9 -3 14
-10 11 -15 -3 -5 10 -23 29 -40 19 -17 35 -35 35 -40 0 -6 6 -8 14 -5 8 3 24
-5 37 -20 12 -14 35 -28 52 -32 22 -4 26 -8 16 -15 -11 -7 -10 -9 4 -9 9 0 17
-7 17 -15 0 -8 5 -15 11 -15 5 0 7 5 4 10 -10 16 12 12 29 -5 8 -9 18 -15 21
-14 5 1 30 -6 55 -15 3 -1 26 -5 52 -9 26 -5 57 -16 70 -26 42 -33 88 -52 110
-45 14 4 18 2 14 -5 -4 -6 -2 -11 4 -11 6 0 22 -26 36 -57 14 -32 29 -65 33
-73 6 -11 -9 -32 -58 -78 -36 -35 -79 -71 -96 -79 -16 -9 -55 -34 -85 -57 -30
-23 -60 -45 -67 -49 -8 -5 -34 10 -67 37 -30 24 -70 49 -89 55 -46 16 -71 54
-68 107 1 27 -4 45 -14 54 -8 7 -23 28 -31 46 -18 37 -50 46 -56 17 -2 -14 -8
-10 -25 17 -16 28 -22 57 -26 140 -3 58 -10 128 -16 155 -10 49 -21 175 -15
175 2 0 12 -17 23 -39z"/>
<path d="M2558 3400 c-15 -4 -30 -5 -34 -1 -4 3 -4 1 -1 -5 7 -12 54 -7 63 7
3 5 4 9 2 8 -2 0 -15 -4 -30 -9z"/>
<path d="M3835 3240 c-3 -6 1 -7 9 -4 18 7 21 14 7 14 -6 0 -13 -4 -16 -10z"/>
<path d="M2167 4657 c-3 -8 -1 -20 4 -28 6 -10 9 -7 9 14 0 29 -5 35 -13 14z"/>
<path d="M3694 4225 c-9 -14 -14 -28 -10 -32 3 -3 6 -1 6 5 0 7 6 12 13 12 7
0 18 9 25 20 19 31 -13 26 -34 -5z"/>
<path d="M3540 4233 c1 -14 27 -43 39 -43 16 0 14 7 -9 30 -21 21 -30 25 -30
13z"/>
<path d="M3650 4170 c0 -5 5 -10 10 -10 6 0 10 5 10 10 0 6 -4 10 -10 10 -5 0
-10 -4 -10 -10z"/>
<path d="M2630 3810 c-12 -7 -11 -10 5 -16 11 -4 24 -9 28 -12 5 -2 4 5 -2 17
-13 24 -12 23 -31 11z"/>
<path d="M1645 3658 c9 -116 20 -140 29 -64 4 31 15 63 23 72 15 15 15 19 -2
50 -11 21 -26 34 -38 34 -18 0 -19 -5 -12 -92z"/>
<path d="M2776 3413 c-6 -14 -5 -15 5 -6 7 7 10 15 7 18 -3 3 -9 -2 -12 -12z"/>
<path d="M2503 2940 c-12 -9 -20 -20 -17 -23 3 -3 -13 -18 -35 -33 -44 -32
-59 -54 -36 -54 19 0 19 -9 -1 -32 -16 -16 -15 -18 0 -24 18 -7 56 29 109 101
30 42 33 57 15 73 -9 7 -19 5 -35 -8z"/>
<path d="M1805 2869 c-4 -6 -5 -12 -2 -15 2 -3 7 2 10 11 7 17 1 20 -8 4z"/>
<path d="M1825 2803 c3 -12 2 -38 -4 -58 -5 -21 -6 -37 0 -41 8 -5 10 0 13 39
1 6 4 14 7 17 4 3 10 16 14 29 5 17 4 22 -5 16 -7 -4 -16 -1 -22 6 -7 10 -8 8
-3 -8z"/>
<path d="M2561 2684 c0 -11 3 -14 6 -6 3 7 2 16 -1 19 -3 4 -6 -2 -5 -13z"/>
<path d="M2525 2670 c3 -5 8 -10 11 -10 2 0 4 5 4 10 0 6 -5 10 -11 10 -5 0
-7 -4 -4 -10z"/>
<path d="M2675 2640 c3 -5 8 -10 11 -10 2 0 4 5 4 10 0 6 -5 10 -11 10 -5 0
-7 -4 -4 -10z"/>
<path d="M2600 2630 c0 -5 5 -10 11 -10 5 0 7 5 4 10 -3 6 -8 10 -11 10 -2 0
-4 -4 -4 -10z"/>
<path d="M2351 2374 c0 -11 3 -14 6 -6 3 7 2 16 -1 19 -3 4 -6 -2 -5 -13z"/>
<path d="M2877 2306 c-4 -10 -1 -13 8 -9 8 3 12 9 9 14 -7 12 -11 11 -17 -5z"/>
<path d="M1871 2274 c0 -11 3 -14 6 -6 3 7 2 16 -1 19 -3 4 -6 -2 -5 -13z"/>
<path d="M2352 2270 c0 -14 2 -19 5 -12 2 6 2 18 0 25 -3 6 -5 1 -5 -13z"/>
<path d="M3074 2273 c10 -13 24 -20 30 -16 6 3 6 0 -1 -7 -10 -11 -16 -11 -31
3 -10 9 -23 17 -28 17 -5 0 -1 -5 9 -11 9 -5 17 -15 17 -20 0 -6 -4 -8 -9 -4
-5 3 -12 1 -15 -4 -4 -5 -2 -12 3 -15 5 -4 12 -2 16 4 3 5 11 10 16 10 6 0 8
-4 4 -9 -3 -5 0 -13 6 -17 8 -4 9 -3 5 4 -4 7 -2 12 3 12 6 0 11 -6 11 -13 0
-18 37 -57 54 -57 7 0 -5 19 -27 42 -31 32 -36 43 -25 47 11 5 13 12 7 29 -5
12 -11 22 -14 22 -4 0 -3 -4 0 -10 9 -14 -18 -12 -35 3 -8 6 -6 2 4 -10z"/>
<path d="M2886 2255 c4 -8 1 -22 -6 -30 -11 -13 -10 -14 4 -9 19 7 20 1 5 -29
-10 -21 -9 -21 5 -3 9 10 14 28 11 40 -2 12 -4 27 -4 34 -1 6 -5 12 -11 12 -5
0 -7 -7 -4 -15z"/>
<path d="M2180 2235 c0 -8 -5 -15 -10 -15 -6 0 -8 -11 -4 -26 5 -21 4 -25 -6
-19 -9 5 -11 4 -6 -4 9 -14 26 -5 26 15 0 9 7 22 15 31 8 8 13 19 10 24 -9 14
-25 11 -25 -6z"/>
<path d="M2961 2214 c0 -11 3 -14 6 -6 3 7 2 16 -1 19 -3 4 -6 -2 -5 -13z"/>
</g>
</svg>
